<svg version="1.2" xmlns="http://www.w3.org/2000/svg" viewBox="0 0 20 29" width="20" height="29">
	<title>B</title>
	<style>
		.s0 { fill: #272727 } 
	</style>
	<path id="B" fill-rule="evenodd" class="s0" d="m2.7 14.6v-10.3h-2.5v-4.2q2.7 0 5.5 0.1 2.8 0 5.5 0 1.7 0 2.9 0.5 1.3 0.5 2 1.5 0.8 0.9 1.2 2.3 0.4 1.3 0.4 2.9 0 0.9-0.1 1.9-0.1 1-0.5 1.9-0.3 0.9-1 1.6-0.6 0.6-1.6 0.9 1.4 0.1 2.2 0.9 0.9 0.7 1.4 1.8 0.5 1.1 0.7 2.3 0.2 1.3 0.2 2.4 0 3.9-2 5.9-2 2-5.8 2h-8.5zm7.8 1.5h-2.6v8.9h2.6q1 0 1.7-0.3 0.7-0.4 1.1-1.1 0.5-0.6 0.7-1.5 0.2-0.8 0.2-1.7 0-0.8-0.2-1.6-0.3-0.8-0.7-1.4-0.5-0.6-1.2-1-0.7-0.3-1.6-0.3zm-0.4-11.8h-2.2v7.7h2.2q0.8 0 1.4-0.3 0.6-0.4 1-0.9 0.4-0.6 0.5-1.3 0.2-0.7 0.2-1.5 0-0.7-0.2-1.4-0.2-0.6-0.5-1.1-0.4-0.6-1-0.9-0.6-0.3-1.4-0.3z"/>
</svg>