<svg version="1.2" xmlns="http://www.w3.org/2000/svg" viewBox="0 0 41 14" width="41" height="14">
	<title>Throw</title>
	<style>
		.s0 { fill: #272727 } 
	</style>
	<path id="Throw" fill-rule="evenodd" class="s0" d="m0.1 2.7v-1.7h10.1v3.6q0.4-0.3 0.8-0.5 0.4-0.1 0.8-0.1 0.7 0 1.2 0.2 0.5 0.2 0.8 0.5 0.3 0.4 0.5 0.9 0.2 0.6 0.2 1.2v6.2h-2v-6.2q0-0.2 0-0.5-0.1-0.2-0.2-0.4-0.1-0.1-0.3-0.2-0.2-0.1-0.5-0.1-0.4 0-0.7 0.2-0.2 0.1-0.3 0.4-0.2 0.3-0.2 0.6-0.1 0.3-0.1 0.6v5.6h-1.9v-10.3h-3.6v10.3h-2v-10.3zm14.5 3v-1.6h2.9v0.7q0.2-0.3 0.4-0.4 0.2-0.2 0.4-0.3 0.3-0.1 0.5-0.1 0.3-0.1 0.6-0.1 0.4 0 0.8 0.1 0.4 0.1 0.8 0.2l-0.5 2q-0.3-0.1-0.7-0.3-0.3-0.1-0.7-0.1-0.5 0-0.7 0.1-0.3 0.2-0.4 0.4-0.1 0.3-0.2 0.6 0 0.3 0 0.7 0 1.3 0 2.7 0 1.3 0 2.7h-2v-7.3zm10.7-1.7q0.6 0 1.1 0.2 0.5 0.1 0.9 0.5 0.3 0.3 0.6 0.8 0.2 0.4 0.4 0.9 0.1 0.5 0.2 1.1 0 0.5 0 1.1 0 0.5 0 1.1-0.1 0.6-0.2 1.1-0.2 0.5-0.4 0.9-0.2 0.5-0.6 0.8-0.4 0.3-0.9 0.5-0.5 0.2-1.1 0.2-0.7 0-1.2-0.2-0.5-0.2-0.9-0.5-0.3-0.3-0.6-0.8-0.2-0.4-0.3-0.9-0.2-0.5-0.2-1.1-0.1-0.6-0.1-1.1 0-0.6 0.1-1.1 0-0.6 0.2-1.1 0.1-0.5 0.3-0.9 0.3-0.5 0.6-0.8 0.4-0.4 0.9-0.5 0.5-0.2 1.2-0.2zm0 1.6q-0.4 0-0.6 0.2-0.2 0.1-0.4 0.4-0.1 0.2-0.2 0.6 0 0.3-0.1 0.6 0 0.4 0 0.7 0 0.3 0 0.5 0 0.2 0 0.5 0 0.3 0 0.6 0.1 0.4 0.1 0.7 0.1 0.3 0.2 0.6 0.2 0.3 0.4 0.4 0.2 0.2 0.6 0.2 0.3 0 0.5-0.2 0.2-0.1 0.4-0.4 0.1-0.3 0.2-0.6 0.1-0.3 0.1-0.7 0-0.3 0-0.6 0-0.3 0-0.5 0-0.2 0-0.5 0-0.4 0-0.7 0-0.3-0.1-0.6-0.1-0.4-0.2-0.6-0.2-0.3-0.4-0.4-0.2-0.2-0.5-0.2zm3.8 0.1v-1.6h2.8l1.2 6 1.2-4.7h1.8l1.2 4.7 1.1-6h1.9l-1.7 8.9h-2.4l-1.1-4.2-1 4.2h-2.3l-1.5-7.3z"/>
</svg>