<svg version="1.2" xmlns="http://www.w3.org/2000/svg" viewBox="0 0 16 31" width="16" height="31">
	<title>C</title>
	<style>
		.s0 { fill: #272727 } 
	</style>
	<path id="C" class="s0" d="m15.3 2.6l-1.5 3.9q-0.8-0.6-1.7-1-1-0.4-2-0.4-1.3 0-2.2 0.5-0.8 0.6-1.4 1.5-0.6 0.8-1 2-0.4 1.1-0.6 2.3-0.2 1.1-0.2 2.3-0.1 1.1-0.1 2 0 0.8 0.1 1.9 0.1 1.1 0.3 2.3 0.3 1.1 0.7 2.2 0.4 1.1 1 2 0.6 0.9 1.4 1.4 0.9 0.5 2 0.5 1.1 0 2.1-0.3 1.1-0.4 2-1l1.3 3.9q-1.4 0.9-2.9 1.2-1.5 0.4-3.1 0.4-2 0-3.4-0.7-1.5-0.6-2.5-1.8-1-1.1-1.7-2.6-0.7-1.5-1-3.2-0.4-1.6-0.6-3.3-0.1-1.7-0.1-3.2 0-1.5 0.2-3.1 0.1-1.7 0.6-3.3 0.4-1.7 1.1-3.1 0.7-1.5 1.7-2.6 1.1-1.1 2.5-1.8 1.4-0.7 3.3-0.7 1.5 0 3 0.5 1.4 0.5 2.7 1.3z"/>
</svg>