<svg version="1.2" xmlns="http://www.w3.org/2000/svg" viewBox="0 0 36 39" width="36" height="39">
	<title>Pasta 3</title>
	<style>
		.s0 { fill: #adadad;stroke: #000000;stroke-linecap: square;stroke-width: 2 } 
		.s1 { fill: #272727;stroke: #272727;stroke-linecap: square } 
		.s2 { fill: none;stroke: #272727;stroke-linecap: square;stroke-width: 2 } 
		.s3 { mix-blend-mode: difference;fill: #ffffff } 
	</style>
	<g id="Pasta 3">
		<g id="Pasta 2">
			<path id="Layer copy 2" class="s0" d="m33.9 24q0 7.3-15.5 12.9-15.6-5.6-15.6-12.9 0-7.3 0-18.3 10.5-3.7 15.6-3.7 5.1 0 15.5 3.7 0 11 0 18.3z"/>
			<path id="Layer copy" fill-rule="evenodd" class="s1" d="m17.5 36.9q-15.5-5.6-15.5-12.9 0-7.3 0-18.3 10.4-3.7 15.5-3.7 0.4 0 0.8 0v34.6q-0.4 0.2-0.8 0.3z"/>
			<path class="s2" d="m33.9 24q0 7.3-15.5 12.9-15.6-5.6-15.6-12.9 0-7.3 0-18.3 10.5-3.7 15.6-3.7 5.1 0 15.5 3.7 0 11 0 18.3z"/>
		</g>
		<path id="REV" fill-rule="evenodd" class="s3" d="m5.9 25.2h2.3v-4.9h0.8l2.4 4.9h2.6q-0.7-1.3-1.3-2.7-0.7-1.2-1.4-2.6 0.6-0.2 1-0.7 0.4-0.4 0.6-0.8 0.2-0.5 0.3-1 0.1-0.6 0.1-1.1 0-1.9-1-2.8-1.1-0.9-3.1-0.9h-4.5v1.8h1.2zm4.1-10.7q0.4 0.2 0.5 0.4 0.3 0.3 0.3 0.7 0.1 0.4 0.1 0.8 0 0.3 0 0.7-0.1 0.4-0.2 0.7-0.2 0.3-0.5 0.6-0.2 0.1-0.7 0.1h-1.3v-4.2h0.9q0.5 0 0.9 0.2zm5.4 10.7h6.8v-1.8h-4.5v-3.8h4v-1.8h-4v-3.5h5.6l2.7 10.9h2.8l3-12.7h-2.4q-0.5 2.4-1 4.8-0.4 2.3-1 4.7l-2.1-9.5h-11.2v1.8h1.3z"/>
	</g>
</svg>