<svg width="54.5" xmlns="http://www.w3.org/2000/svg" height="52.045" viewBox="101.5 402.955 54.5 52.045" fill="none"><g class="fills"><path d="M132.000,455.000C117.600,455.000,107.500,451.500,106.500,438.500C106.500,438.257,106.000,434.000,106.000,434.000L109.000,434.000L101.500,425.000L106.000,425.000C106.000,425.000,105.982,423.120,106.000,422.500C106.471,405.999,117.500,402.500,133.000,403.000C147.393,403.464,156.000,415.600,156.000,430.000C156.000,444.400,146.400,455.000,132.000,455.000ZL132.000,455.000ZM148.300,429.600C148.300,419.300,142.284,410.566,132.000,410.000C122.398,409.471,112.860,412.023,111.500,422.500C111.485,422.618,111.500,424.500,111.500,424.500L115.500,424.500L109.000,434.000L113.000,434.000C113.000,434.000,112.875,435.979,113.000,437.000C114.206,446.874,122.738,448.158,132.000,447.000C142.400,445.700,148.300,439.900,148.300,429.600ZL148.300,429.600Z" class="s0"/></g></svg>