<svg width="42.5" xmlns="http://www.w3.org/2000/svg" height="27.9" viewBox="111.5 420.1 42.5 27.9" fill="none"><path d="M130.000,448.000C115.600,448.000,111.500,439.800,111.500,425.400C111.500,425.067,111.500,424.733,111.500,424.400L118.500,424.400C118.500,424.600,118.500,424.800,118.500,425.000C118.500,435.300,119.700,440.500,130.000,440.500C140.300,440.500,144.000,437.400,144.000,427.100C144.000,426.900,144.000,426.700,144.000,426.500L140.000,426.600L147.000,420.100L154.000,426.600L150.000,426.500C150.000,426.833,150.000,427.167,150.000,427.500C150.000,441.900,144.400,448.000,130.000,448.000ZL130.000,448.000Z" class="fills"/></svg>