<svg version="1.2" xmlns="http://www.w3.org/2000/svg" viewBox="0 0 52 52" width="52" height="52">
	<title>214</title>
	<style>
		.s0 { fill: #ffffff;stroke: #606060;stroke-miterlimit:100 } 
		.s1 { fill: #f7d406;stroke: #a67d00;stroke-miterlimit:100 } 
	</style>
	<g id="Pasta 1">
		<path class="s0" d="m19.7 17.9l4.6 5.1q0.1 0.2 0.3 0.3 0.1 0.1 0.3 0.2 0.2 0.1 0.3 0.1 0.2 0.1 0.4 0.1 0.1 0.1 0.3 0.1 0.1 0 0.2 0 0.1 0 0.3 0 0.1 0 0.2 0 0.2 0 0.3 0 0.2 0 0.3 0 0.1 0 0.3 0 0.1-0.1 0.3-0.1 0.1 0 0.3-0.1 0.1 0 0.3-0.1 0.1-0.1 0.2-0.2 0.2-0.1 0.3-0.2l4.5-5 0.1-0.1q0.2-0.3 0.4-0.6 0.2-0.4 0.3-0.8 0.2-0.4 0.3-0.8 0-0.4 0.1-0.8l0.2-6.2v-0.1-0.1c-0.4-3.1-3.4-4.1-4.9-4.2-0.3 0-1.7-0.1-3.3-0.1-1.6 0-3 0.1-3.2 0.1-1.6 0.1-4.6 1.1-4.9 4.3l0.2 6.5q0 0.4 0.1 0.7 0.1 0.4 0.2 0.7 0.1 0.4 0.3 0.7 0.2 0.3 0.4 0.6z"/>
		<path class="s0" d="m33.6 35.5l-0.1-0.1-4.6-5.1q-0.1-0.1-0.2-0.2-0.2-0.2-0.3-0.3-0.2 0-0.4-0.1-0.2-0.1-0.3-0.1-0.2 0-0.3 0-0.1-0.1-0.3-0.1-0.1 0-0.2 0-0.1 0-0.3 0-0.1 0-0.3 0-0.1 0-0.2 0-0.2 0.1-0.3 0.1-0.2 0-0.3 0-0.2 0-0.3 0.1-0.2 0.1-0.3 0.1-0.2 0.1-0.3 0.2-0.1 0.1-0.2 0.3l-4.6 5q-0.3 0.3-0.5 0.7-0.2 0.3-0.3 0.7-0.1 0.4-0.2 0.8-0.1 0.4-0.1 0.8l-0.2 6.3v0.1c0.3 3.1 3.3 4.1 4.9 4.2 0.2 0 1.7 0.2 3.2 0.2 1.6 0 3-0.2 3.3-0.2 1.6-0.1 4.6-1.1 4.9-4.2v-0.1l-0.2-6.5q-0.1-0.3-0.1-0.7-0.1-0.4-0.2-0.7-0.1-0.3-0.3-0.7-0.2-0.3-0.4-0.5z"/>
		<path class="s0" d="m23.7 27.7q0-0.1 0-0.3 0-0.1 0.1-0.2 0-0.1 0-0.3 0-0.1 0-0.2 0-0.2 0-0.3 0-0.2 0-0.3-0.1-0.2-0.1-0.3 0-0.1 0-0.3-0.1-0.1-0.1-0.3-0.1-0.1-0.1-0.3-0.1-0.1-0.2-0.3-0.1-0.1-0.3-0.2l-5-4.5v-0.1q-0.3-0.2-0.7-0.4-0.3-0.2-0.7-0.4-0.4-0.1-0.8-0.2-0.4-0.1-0.8-0.1l-6.2-0.2h-0.1-0.1c-3.1 0.4-4.1 3.4-4.2 4.9 0 0.3-0.2 1.7-0.2 3.3 0 1.5 0.2 3 0.2 3.2 0.1 1.6 1.1 4.6 4.2 4.9h0.1l6.5-0.2q0.3 0 0.7-0.1 0.4-0.1 0.7-0.2 0.3-0.1 0.6-0.3 0.4-0.2 0.6-0.4h0.1l5.1-4.6q0.1-0.1 0.2-0.3 0.2-0.1 0.2-0.3 0.1-0.2 0.2-0.3 0.1-0.2 0.1-0.4z"/>
		<path class="s0" d="m48.9 23.4c-0.1-1.6-1.1-4.6-4.3-4.9l-6.5 0.2q-0.4 0.1-0.7 0.1-0.4 0.1-0.7 0.2-0.4 0.1-0.7 0.3-0.3 0.2-0.6 0.4v0.1l-5.1 4.6q-0.2 0.1-0.3 0.2-0.1 0.2-0.2 0.3-0.1 0.2-0.2 0.4 0 0.2 0 0.3-0.1 0.2-0.1 0.3 0 0.1 0 0.3 0 0.1 0 0.2 0 0.1 0 0.3 0 0.1 0 0.3 0 0.1 0 0.2 0 0.2 0 0.3 0.1 0.2 0.1 0.3 0 0.2 0.1 0.3 0 0.2 0.1 0.3 0.1 0.2 0.2 0.3 0.1 0.1 0.2 0.2l5 4.6h0.1q0.3 0.3 0.6 0.5 0.4 0.2 0.8 0.3 0.3 0.1 0.7 0.2 0.4 0.1 0.8 0.1l6.3 0.2h0.1 0.1c3.1-0.4 4.1-3.3 4.1-4.9 0.1-0.2 0.2-1.7 0.2-3.2 0-1.6-0.1-3-0.1-3.3z"/>
	</g>
	<path class="s1" d="m24.8 45.8c11 0 18.7-2.5 19.4-11.9 0-0.2 0.4-3.3 0.4-3.3h-2.3l5.7-6.4h-3.4c0 0 0-1.4 0-1.8-0.4-11.9-8.8-14.5-20.6-14.1-11 0.3-17.5 9.1-17.5 19.5 0 10.3 7.3 18 18.3 18zm-12.5-18.3c0-7.5 4.6-13.7 12.5-14.2 7.3-0.3 14.6 1.5 15.6 9.1 0 0 0 1.4 0 1.4h-3l4.9 6.8h-3c0 0 0.1 1.5 0 2.2-1 7.1-7.5 8-14.5 7.2-8-0.9-12.5-5.1-12.5-12.5z"/>
</svg>