<svg version="1.2" xmlns="http://www.w3.org/2000/svg" viewBox="0 0 52 52" width="52" height="52"><style>.a{fill:#019300}.b{fill:none;stroke:#00ea00;stroke-miterlimit:100;stroke-width:3.2}.c{fill:#fff}</style><path fill-rule="evenodd" class="a" d="m26 48c-13.3 0-24-9.8-24-22 0-12.2 10.7-22 24-22 13.3 0 24 9.8 24 22 0 12.2-10.7 22-24 22z"/><path fill-rule="evenodd" class="b" d="m26 48c-13.3 0-24-9.8-24-22 0-12.2 10.7-22 24-22 13.3 0 24 9.8 24 22 0 12.2-10.7 22-24 22z"/><path class="c" d="m32.3 14.5l-1.3 3.5q-0.7-0.5-1.6-0.9-0.8-0.4-1.8-0.4-1.1 0-1.9 0.5-0.7 0.5-1.3 1.3-0.5 0.8-0.9 1.8-0.3 1-0.5 2-0.1 1.1-0.2 2.1 0 1 0 1.8 0 0.8 0.1 1.8 0 0.9 0.2 2 0.2 1 0.6 2 0.4 0.9 0.9 1.7 0.5 0.8 1.3 1.3 0.7 0.4 1.8 0.4 1 0 1.9-0.3 0.9-0.3 1.7-0.8l1.2 3.5q-1.2 0.7-2.6 1.1-1.4 0.3-2.8 0.3-1.7 0-3-0.6-1.3-0.6-2.2-1.6-0.9-1.1-1.6-2.4-0.5-1.3-0.9-2.8-0.3-1.5-0.5-3-0.1-1.5-0.1-2.8 0-1.4 0.2-2.9 0.1-1.4 0.5-2.9 0.4-1.5 1-2.8 0.6-1.3 1.6-2.3 0.9-1 2.2-1.6 1.3-0.6 3-0.6 1.3 0 2.6 0.5 1.3 0.4 2.4 1.1z"/></svg>