<svg version="1.2" xmlns="http://www.w3.org/2000/svg" viewBox="0 0 52 52" width="52" height="52">
	<title>buttonA</title>
	<style>
		.s0 { fill: #a9a9a9 } 
		.s1 { fill: none;stroke: #808080;stroke-miterlimit:100;stroke-width: 3.2 } 
		.s2 { fill: #ffffff } 
	</style>
	<path fill-rule="evenodd" class="s0" d="m26 48c-13.3 0-24-9.8-24-22 0-12.2 10.7-22 24-22 13.3 0 24 9.8 24 22 0 12.2-10.7 22-24 22z"/>
	<path fill-rule="evenodd" class="s1" d="m26 48c-13.3 0-24-9.8-24-22 0-12.2 10.7-22 24-22 13.3 0 24 9.8 24 22 0 12.2-10.7 22-24 22z"/>
	<path id="P" class="s2" aria-label="P"  d="m20.6 16.4h-2.4v-3.6h8.1q4.1 0 6 2 2 2 2 6.2 0 1.7-0.4 3.3-0.4 1.5-1.2 2.6-0.8 1.2-2.2 1.8-1.3 0.7-3.2 0.7h-2.5v8.6h-4.2zm5.7-0.1h-1.5v9.5h2.6q0.9 0 1.4-0.5 0.5-0.5 0.7-1.2 0.3-0.8 0.3-1.6 0.1-0.8 0.1-1.4 0-1-0.1-1.9-0.1-0.9-0.5-1.5-0.4-0.7-1.1-1.1-0.7-0.3-1.9-0.3z"/>
</svg>