<svg version="1.2" xmlns="http://www.w3.org/2000/svg" viewBox="0 0 52 52" width="52" height="52"><style>.a{fill:#8f1b1b}.b{fill:none;stroke:#f12f33;stroke-miterlimit:100;stroke-width:3.2}.c{fill:#fff}</style><path fill-rule="evenodd" class="a" d="m26 48c-13.3 0-24-9.8-24-22 0-12.2 10.7-22 24-22 13.3 0 24 9.8 24 22 0 12.2-10.7 22-24 22z"/><path fill-rule="evenodd" class="b" d="m26 48c-13.3 0-24-9.8-24-22 0-12.2 10.7-22 24-22 13.3 0 24 9.8 24 22 0 12.2-10.7 22-24 22z"/><path class="c" d="m22.6 15.9h-2.4v-3.7h8l6.3 25.8h-4.4l-1.3-5.7h-5.9l-1.3 5.7h-4.4zm3.2 2q-0.4 2.7-1 5.3-0.6 2.6-1.2 5.3h4.3q-0.6-2.7-1.2-5.3-0.6-2.6-0.9-5.3z"/></svg>