<svg version="1.2" xmlns="http://www.w3.org/2000/svg" viewBox="0 0 52 52" width="52" height="52"><style>.a{fill:#9f8c0b}.b{fill:none;stroke:#faf500;stroke-miterlimit:100;stroke-width:3.2}.c{fill:#fff}</style><path fill-rule="evenodd" class="a" d="m26 48c-13.3 0-24-9.8-24-22 0-12.2 10.7-22 24-22 13.3 0 24 9.8 24 22 0 12.2-10.7 22-24 22z"/><path fill-rule="evenodd" class="b" d="m26 48c-13.3 0-24-9.8-24-22 0-12.2 10.7-22 24-22 13.3 0 24 9.8 24 22 0 12.2-10.7 22-24 22z"/><path class="c" d="m20.3 26.1v-9.2h-2.3v-3.7q2.5 0 4.9 0 2.5 0 5 0 1.5 0 2.6 0.5 1.1 0.5 1.8 1.3 0.7 0.9 1 2.1 0.4 1.2 0.4 2.6 0 0.8-0.1 1.7-0.1 0.9-0.5 1.7-0.3 0.8-0.8 1.4-0.6 0.6-1.5 0.8 1.2 0.1 2 0.8 0.8 0.7 1.3 1.7 0.4 0.9 0.6 2 0.2 1.1 0.2 2.1 0 3.5-1.8 5.3-1.8 1.8-5.3 1.8h-7.5zm6.9 1.3h-2.3v8h2.3q0.9 0 1.5-0.3 0.6-0.4 1-0.9 0.5-0.6 0.7-1.4 0.1-0.7 0.1-1.5 0-0.7-0.2-1.5-0.2-0.7-0.6-1.2-0.4-0.6-1-0.9-0.6-0.3-1.5-0.3zm-0.3-10.5h-2v6.9h2q0.7 0 1.3-0.3 0.5-0.3 0.8-0.8 0.3-0.5 0.5-1.2 0.2-0.6 0.2-1.3 0-0.6-0.2-1.2-0.2-0.6-0.5-1.1-0.3-0.4-0.9-0.7-0.5-0.3-1.2-0.3z"/></svg>