<svg version="1.2" xmlns="http://www.w3.org/2000/svg" viewBox="0 0 52 52" width="52" height="52"><style>.a{fill:#0050ff}.b{fill:none;stroke:#0094ff;stroke-miterlimit:100;stroke-width:3.2}.c{fill:#fff}</style><path fill-rule="evenodd" class="a" d="m26 48c-13.3 0-24-9.8-24-22 0-12.2 10.7-22 24-22 13.3 0 24 9.8 24 22 0 12.2-10.7 22-24 22z"/><path fill-rule="evenodd" class="b" d="m26 48c-13.3 0-24-9.8-24-22 0-12.2 10.7-22 24-22 13.3 0 24 9.8 24 22 0 12.2-10.7 22-24 22z"/><path class="c" d="m19.4 16.9h-2.4v-3.7h7.7q2.1 0 3.5 0.5 1.5 0.5 2.6 1.4 1 0.8 1.7 2.1 0.7 1.1 1 2.6 0.4 1.4 0.6 3 0.1 1.6 0.1 3.3 0 1.4-0.1 2.8-0.1 1.5-0.4 2.9-0.3 1.4-0.9 2.8-0.5 1.3-1.4 2.2-0.9 1-2.1 1.6-1.3 0.6-3 0.6h-6.9zm5.9 0h-1.6v18.6h1.5q1.2 0 2-0.5 0.7-0.5 1.3-1.2 0.5-0.8 0.7-1.8 0.3-1 0.4-2 0.1-1.1 0.2-2.1 0-1 0-1.8 0-0.9 0-1.9 0-1-0.1-2-0.1-1-0.4-2-0.2-1-0.7-1.7-0.5-0.7-1.3-1.2-0.8-0.4-2-0.4z"/></svg>