<svg version="1.2" xmlns="http://www.w3.org/2000/svg" viewBox="0 0 52 52" width="52" height="52">
	<title>icobase</title>
	<style>
		.s0 { fill: #047ae9 } 
		.s1 { fill: #70d3fd;stroke: #ffffff;stroke-miterlimit:100;stroke-width: 2 } 
		.s2 { opacity: .98;fill: #184977 } 
		.s3 { fill: #ffffff } 
		.s4 { opacity: .99;fill: #047beb } 
	</style>
	<path id="Forma 1 copy" fill-rule="evenodd" class="s0" d="m26 48c-13.3 0-24-9.8-24-22 0-12.2 10.7-22 24-22 13.3 0 24 9.8 24 22 0 12.2-10.7 22-24 22z"/>
	<path id="Camada 1" fill-rule="evenodd" class="s1" d="m26 45c-11.6 0-21-8.5-21-19 0-10.5 9.4-19 21-19 11.6 0 21 8.5 21 19 0 10.5-9.4 19-21 19z"/>
	<g id="Background">
		<path id="outline" class="s2" d="m14.7 13.5c-0.5 0.3-1.4 1.1-1.9 1.9-0.7 1-0.9 1.7-0.7 2.5 0.1 0.7 0.7 1.8 1.3 2.6 0.6 0.7 1.2 1.5 1.3 1.7 0.1 0.3 0.7 1.5 1.4 2.8 0.7 1.5 1.9 3.1 3.5 4.5 1.3 1.2 3 2.6 3.9 3.2 1.2 0.9 1.4 1.2 1.2 2-0.1 0.7 0.1 1.5 0.7 2.5 0.5 0.8 1.6 2 2.5 2.6 1.3 1.1 1.9 1.3 3.5 1.3 1.6 0 2.4-0.3 3.9-1.3 1.1-0.7 2.3-1.8 2.6-2.3 0.5-0.9 0.5-1.8 0.1-7.5-0.3-3.6-0.5-7.2-0.5-8 0-0.8-0.1-1.8-0.3-2.3-0.3-0.4-1-1-1.7-1.3-0.7-0.3-1.7-1-2.3-1.6-0.6-0.6-1.4-1-2.1-1-0.6 0-1.5-0.3-1.9-0.6-0.6-0.4-2.2-0.6-4.8-0.7-3 0-4-0.2-4.9-0.8-0.6-0.4-1.7-0.7-2.5-0.7-0.7 0-1.8 0.2-2.3 0.5z"/>
		<path id="Path 22" class="s3" d="m33.6 23.7c0 0.2 0.2 0.7 0.4 1.1 0.2 0.3 0.8 2.4 1.4 4.6 0.5 2.2 1 4.5 1 5.1 0 0.7-0.2 1.4-0.4 1.6-0.3 0.2-0.4 0.8-0.3 1.2 0.1 0.7 0.1 0.7 0.8-0.2 0.6-0.9 0.6-1.6 0.3-6.5-0.2-3.1-0.5-5.9-0.8-6.4-0.3-0.6-0.8-0.9-1.4-0.9-0.6 0-1 0.2-1 0.4zm-17-0.8c0 0.2 0.4 1 0.8 1.9 0.4 0.8 2 2.7 3.6 4.2 2.3 2.2 3.4 3 5.1 3.5 1.2 0.4 2.2 0.7 2.3 0.6 0-0.1-0.8-0.5-1.8-1-1-0.5-2.6-1.6-3.4-2.5-0.8-0.9-1.4-1.8-1.4-2 0-0.2 0.5-0.8 1.2-1.3 0.7-0.5 2-1.2 2.9-1.4 0.9-0.3 2.1-0.8 2.8-1.1 1.1-0.6 1.1-0.7 0.4-1-0.5-0.1-3.5-0.3-6.7-0.3-3.6 0-5.8 0.1-5.8 0.4z"/>
		<path id="Path 23" fill-rule="evenodd" class="s4" d="m23.5 20.6c2 0.2 3.4 0.5 5 1.3 1.2 0.6 2.7 1.5 3.3 2 0.7 0.5 1.5 0.9 1.8 0.9 0.4 0.1 0.9 1.3 1.7 4.5 0.6 2.4 1.1 4.9 1.1 5.5 0 0.6-0.2 1.2-0.4 1.3-0.2 0.1-0.4 0.7-0.4 1.2 0 0.6-0.4 1.2-0.9 1.6-0.5 0.3-1.6 0.8-2.4 1-1.2 0.3-1.7 0.2-3.1-0.6-1-0.5-2-1.3-2.3-1.9-0.4-0.5-0.8-1.6-1.2-3.9l2.5 0.3c1.3 0.1 3.1 0.3 5.4 0.5v-3.2c0-1.8-0.1-3.4-0.2-3.6-0.1-0.1-1.5 0.7-3.2 2-2.4 1.8-2.8 2.4-2.4 2.8 0.4 0.4 0.2 0.4-0.9 0-0.8-0.3-2.2-1.3-3.3-2.3-1-1-1.8-2-1.8-2.3 0-0.3 0.5-0.9 1.2-1.4 0.7-0.5 2-1.2 2.9-1.4 0.9-0.3 2.1-0.8 2.8-1.1 1.1-0.6 1.1-0.7 0.4-1-0.5-0.1-2.8-0.3-5.3-0.3-4 0-4.4-0.1-4.1-0.7 0.1-0.4 0.4-0.8 0.6-1 0.3-0.2 1.7-0.3 3.2-0.2zm-6.3 0.3c0.3 0 0.6 0.2 0.6 0.4 0 0.2-0.2 0.4-0.4 0.4-0.2 0-0.5-0.2-0.6-0.4-0.2-0.2 0-0.4 0.4-0.4zm15 0.8c0.1 0 0.7 0.3 1.2 0.6 0.8 0.5 0.9 0.7 0.5 1.1-0.4 0.5-0.6 0.5-1.2-0.1-0.4-0.3-0.7-0.8-0.7-1.1 0-0.3 0.1-0.5 0.2-0.5z"/>
		<path id="Path 24" class="s3" d="m33.2 19.9c-0.5 0.6-0.5 0.6 0 0.6 0.3 0 1-0.3 1.4-0.6 0.8-0.6 0.8-0.6-0.1-0.6-0.4 0-1.1 0.3-1.3 0.6z"/>
		<path id="Path 25" class="s4" d="m28.9 19.7c-0.2 0.5-0.3 0.8 0 0.8 0.2 0 0.4-0.3 0.5-0.6 0-0.4 0.1-0.7 0-0.8 0-0.1-0.2 0.2-0.5 0.6zm-3.1-1.9q-0.3 0.5 0.2 0.2c0.3-0.1 0.5-0.3 0.5-0.4 0-0.2-0.1-0.2-0.2-0.2-0.1 0-0.3 0.2-0.5 0.4z"/>
		<path id="Path 26" class="s3" d="m28.9 17.7c-0.2 0.5-0.4 1.2-0.3 1.7 0.1 0.8 0.1 0.8 0.9-0.5 0.5-0.7 0.9-1.5 0.9-1.6 0-0.2-0.2-0.3-0.5-0.3-0.4 0-0.8 0.3-1 0.7z"/>
		<path id="Path 27" class="s4" d="m27.8 17c0.2 0.2 0.4 0.4 0.5 0.4 0.1 0 0.2-0.2 0.2-0.4 0-0.3-0.2-0.4-0.5-0.4-0.2 0-0.3 0.1-0.2 0.4zm-5.3 0.2c-0.7 0.5-1.6 0.9-2 0.8-0.4-0.2-0.7 0-0.7 0.2 0 0.3 0.2 0.8 0.5 1 0.2 0.3 0.8 0.5 1.2 0.5 0.3 0 1-0.5 1.4-1.1 0.4-0.6 0.8-1.4 0.9-1.7 0.1-0.4 0.2-0.7 0.2-0.7-0.1 0-0.7 0.4-1.5 1zm-4.7 0c-0.6 0.6-1.5 1.3-2.1 1.6-1 0.5-1 0.6-0.5 1.3 0.6 0.8 0.6 0.8 1.6-0.3 0.5-0.6 1.2-1.6 1.5-2.3 0.3-0.8 0.6-1.3 0.5-1.3 0 0-0.5 0.4-1 1z"/>
		<path id="Path 28" class="s3" d="m24.7 16.3c-0.4 0.4-0.6 1.1-0.6 1.5 0 0.5 0.3 0.7 0.8 0.7 0.4 0 0.8-0.1 0.8-0.4 0-0.2 0.6-0.6 1.3-1 0.7-0.3 1.4-0.7 1.5-0.8 0.1-0.1-0.1-0.3-0.4-0.5-0.4-0.2-1.1-0.4-1.7-0.4-0.6 0-1.3 0.3-1.7 0.9zm-4.3 0.1c-0.4 0.5-0.5 1.1-0.4 1.3 0.1 0.3 0.4 0.4 0.7 0.4 0.2 0 1.1-0.4 1.9-0.9 0.9-0.6 1.5-1.2 1.5-1.4 0-0.2-0.7-0.4-1.5-0.4-1.3 0-1.7 0.2-2.2 1zm-5.4-1.7c-0.9 0.7-1.3 1.3-1.4 2.3-0.2 1.1 0.1 1.7 1.2 3 0.8 0.9 1.6 1.7 1.9 1.7 0.3 0-0.1-0.5-0.9-1.1l-1.4-1.2c1.6-0.7 2.5-1.4 3.1-2 0.7-0.6 1.3-1.3 1.5-1.7 0.3-0.6 0.1-0.8-0.8-1.3-0.7-0.3-1.3-0.6-1.5-0.6-0.2 0-0.9 0.4-1.7 0.9z"/>
	</g>
</svg>