<svg version="1.2" xmlns="http://www.w3.org/2000/svg" viewBox="0 0 52 52" width="52" height="52">
	<title>buttonA</title>
	<style>
		.s0 { fill: #808080 } 
	</style>
	<path id="Camada 1" fill-rule="evenodd" class="s0" d="m19 24v4h-25v-4z"/>
	<path id="Camada 1 copy" fill-rule="evenodd" class="s0" d="m60 24v4h-25v-4z"/>
	<g>
		<g>
			<path class="s0" d="m10.6 41.9c3.5 3.5 9.2 3.5 12.6 0l6.8-6.8c-2.3 0.7-4.8 0.5-7-0.5l-3.6 3.5c-1.4 1.4-3.6 1.4-5 0-1.4-1.4-1.4-3.6 0-5l4.5-4.4 2.9-3c1.4-1.3 3.6-1.3 5 0l3.8-3.8c-0.9-0.9-1.9-1.5-3-1.9-2.9-1.2-6.3-0.8-8.9 1.3-0.2 0.2-0.5 0.4-0.7 0.6l-4.6 4.6-2.8 2.8c-3.5 3.5-3.5 9.1 0 12.6z"/>
			<path class="s0" d="m28.7 18.8l3.4-3.4c1.4-1.4 3.6-1.4 5 0 1.4 1.4 1.4 3.6 0 5l-7.4 7.4c-1.3 1.3-3.6 1.3-4.9 0l-3.9 3.8c0.9 0.9 2 1.5 3 1.9 3.1 1.3 6.7 0.7 9.3-1.6q0.2-0.2 0.4-0.3l7.3-7.4c3.5-3.5 3.5-9.1 0-12.6-3.4-3.5-9.1-3.5-12.6 0l-6.6 6.7c3.3-0.8 4.1-0.7 7 0.5z"/>
		</g>
	</g>
</svg>