<svg version="1.2" xmlns="http://www.w3.org/2000/svg" viewBox="0 0 52 52" width="52" height="52">
	<title>punchico</title>
	<style>
		.s0 { fill: #808080 } 
		.s1 { fill: #c9c9c9;stroke: #ffffff;stroke-miterlimit:100;stroke-width: 2 } 
		.s2 { fill: #ffffff } 
		.s3 { fill: none;stroke: #808080 } 
		.s4 { fill: none } 
		.s5 { fill: none;stroke: #808080;stroke-width: 2 } 
		.s6 { fill: none;stroke: #000000;stroke-width: 2 } 
		.s7 { fill: none;stroke: #000000 } 
	</style>
	<path id="Forma 1 copy" fill-rule="evenodd" class="s0" d="m26 48c-13.3 0-24-9.8-24-22 0-12.2 10.7-22 24-22 13.3 0 24 9.8 24 22 0 12.2-10.7 22-24 22z"/>
	<path id="Camada 1" fill-rule="evenodd" class="s1" d="m26 45c-11.6 0-21-8.5-21-19 0-10.5 9.4-19 21-19 11.6 0 21 8.5 21 19 0 10.5-9.4 19-21 19z"/>
	<path id="Path 0" class="s2" d="m11 29.2c-0.8 0.7-1.3 1.8-1.2 2.5 0.1 0.7 1.4 2.1 3 3 1.9 1.2 3.8 1.5 6.7 1 2.2-0.4 4.3-1.2 4.7-1.9 0.4-0.7 0.8-1.6 0.8-2 0-0.5-1.4-1.5-3-2.3-1.6-0.8-4.5-1.5-6.3-1.5-1.8 0-3.9 0.5-4.7 1.2z"/>
	<path id="Path 0" class="s2" d="m15 14.9c-1.4 1.1-3.1 2.5-3.8 3.1-0.6 0.5-1.1 2-1 3.2 0.3 2 1.4 2.5 10.3 4.4 5.5 1.2 12.3 2.9 15 3.8 4.7 1.6 5.1 1.5 6.3-0.1 0.7-1 1.2-2.9 1.2-4.3 0-1.4-0.7-3.5-1.5-4.8-0.8-1.2-3.4-3.2-5.8-4.4-2.6-1.3-6.8-2.3-11.2-2.6-6-0.3-7.3-0.1-9.5 1.7z"/>
	<g id="Pasta 1">
		<path class="s0" d="m20 27.5l-3 0.5-3.5-1-1.4-3.4 0.4-2.1 2-1.2 2.5 0.7 1.5 1.3 1.5 1.2v3.5"/>
		<g>
			<path fill-rule="evenodd" class="s3" d="m20 27.5l-3 0.5-3.5-1-1.4-3.4 0.4-2.1 2-1.2 2.5 0.7 1.5 1.3 1.5 1.2v3.5"/>
		</g>
		<path class="s0" d="m21.6 27.3l-0.7-1.4 0.2-2.6 3.4 0.2 3.5 2-1 2.5-1 0.6-2.3 0.1-2-1.4"/>
		<g>
			<path fill-rule="evenodd" class="s3" d="m21.6 27.3l-0.7-1.4 0.2-2.6 3.4 0.2 3.5 2-1 2.5-1 0.6-2.3 0.1-2-1.4"/>
		</g>
		<path class="s0" d="m28 28.8l0.7-1.7 0.8-1.1 3 1 2 1-0.5 2-0.4 1-1.2 0.9-1-0.2-1.9-1.1-1.3-1.6"/>
		<g>
			<path fill-rule="evenodd" class="s3" d="m28 28.8l0.7-1.7 0.8-1.1 3 1 2 1-0.5 2-0.4 1-1.2 0.9-1-0.2-1.9-1.1-1.3-1.6"/>
		</g>
		<path class="s0" d="m38.2 31.8l-1.7 0.2-1.5-2 0.2-0.7 0.3-1.3 3.7 1.2 0.5 0.7-0.1 1.5-1.3 0.7"/>
		<g>
			<path fill-rule="evenodd" class="s3" d="m38.2 31.8l-1.7 0.2-1.5-2 0.2-0.7 0.3-1.3 3.7 1.2 0.5 0.7-0.1 1.5-1.3 0.7"/>
		</g>
		<path class="s4" d="m17 35l-3.5-0.5-1.5-1.5v-1.5-0.5l1-1.5 2-1"/>
		<g>
			<path fill-rule="evenodd" class="s5" d="m17 35l-3.5-0.5-1.5-1.5v-1.5-0.5l1-1.5 2-1"/>
		</g>
		<path class="s4" d="m21.5 12.5c0 0 1.8-0.5 3-0.5 1.2 0 2.5 0.5 2.5 0.5l1.5 0.5 1 0.5c0 0 0.8-0.4 2.5 0 2.5 0.6 4 2.5 4 2.5h2l1.4 0.5 2.7 4 0.4 4.5-0.9 4-1.8 3.5-4 0.5-1.3-1.5-1.8 0.5-2.7-0.5-1.3-1.5-2.7-0.5-3.5-0.5-2-1-1.5 0.5h-3l-3-0.5-1-2-2-4v-2.5l1.5-2 4-4 3-0.5h1.5z"/>
		<g>
			<g>
				<path id="a" class="s6" d="m21.5 12.5c0 0 1.8-0.5 3-0.5 1.2 0 2.5 0.5 2.5 0.5l1.5 0.5 1 0.5c0 0 0.8-0.4 2.5 0 2.5 0.6 4 2.5 4 2.5h2l1.4 0.5 2.7 4 0.4 4.5-0.9 4-1.8 3.5-4 0.5-1.3-1.5-1.8 0.5-2.7-0.5-1.3-1.5-2.7-0.5-3.5-0.5-2-1-1.5 0.5h-3l-3-0.5-1-2-2-4v-2.5l1.5-2 4-4 3-0.5h1.5z"/>
			</g>
		</g>
		<path class="s4" d="m27 29.5c2.5-4 1.5-10.5 1.5-10.5"/>
		<g>
			<path fill-rule="evenodd" class="s7" d="m27 29.5c2.5-4 1.5-10.5 1.5-10.5"/>
		</g>
		<path class="s4" d="m34 31c1.5-2.5 1.5-7.5 1.5-7.5"/>
		<g>
			<path fill-rule="evenodd" class="s7" d="m34 31c1.5-2.5 1.5-7.5 1.5-7.5"/>
		</g>
		<path class="s4" d="m20.5 27.5c-0.5-4.5 0.5-9.5 0.5-9.5"/>
		<g>
			<path fill-rule="evenodd" class="s7" d="m20.5 27.5c-0.5-4.5 0.5-9.5 0.5-9.5"/>
		</g>
		<path class="s4" d="m14 36c4.5 0.5 8.5-0.5 8.5-0.5 0 0 3-1.4 3-3 0-1.5-0.5-3-3-4-2.5-1-9.5-0.5-9.5-0.5 0 0-2.2 1.6-2.5 3-0.5 2 1.5 4 1.5 4z"/>
		<g>
			<g>
				<path id="c" class="s6" d="m14 36c4.5 0.5 8.5-0.5 8.5-0.5 0 0 3-1.4 3-3 0-1.5-0.5-3-3-4-2.5-1-9.5-0.5-9.5-0.5 0 0-2.2 1.6-2.5 3-0.5 2 1.5 4 1.5 4z"/>
			</g>
		</g>
		<path class="s0" d="m16.5 36l4.5 3.5h3l5-2.5 8-0.5c0 0 3 0.5 2.5-2.5-0.5-3 0-1.5 0-1.5l-5-0.5-4.5-1-1.5-1.5-2.2-0.1-2.3-0.9v1l1.5 2-0.5 1.5-1.5 2-2 0.5z"/>
		<g>
			<g>
				<path id="e" class="s6" d="m16.5 36l4.5 3.5h3l5-2.5 8-0.5c0 0 3 0.5 2.5-2.5-0.5-3 0-1.5 0-1.5l-5-0.5-4.5-1-1.5-1.5-2.2-0.1-2.3-0.9v1l1.5 2-0.5 1.5-1.5 2-2 0.5z"/>
			</g>
		</g>
	</g>
</svg>