<svg version="1.2" xmlns="http://www.w3.org/2000/svg" viewBox="0 0 52 52" width="52" height="52">
	<title>punchico</title>
	<defs>
		<filter x="-50%" y="-50%" width="200%" height="200%" id="f1" ><feDropShadow dx="-0.20905692653530691" dy="1.9890437907365466" stdDeviation="0" flood-color="#000000" flood-opacity="1"/></filter>
	</defs>
	<style>
		.s0 { fill: #f7a506;stroke: #000000;stroke-linecap: square;stroke-width: 2 } 
		.s1 { fill: #000000;stroke: #000000;stroke-linecap: square } 
		.s2 { fill: none;stroke: #000000;stroke-linecap: square;stroke-width: 2 } 
		.s3 { fill: #000000;stroke: #f7a506;stroke-linecap: square } 
		.s4 { fill: #f7a506;stroke: #000000;stroke-linecap: square } 
		.s5 { filter: url(#f1);fill: #ffffff;stroke: #000000;paint-order:stroke fill markers;stroke-linejoin: round;stroke-width: 2 } 
	</style>
	<g id="Pasta 2">
		<path id="Layer copy 2" class="s0" d="m46.9 32.3q0 10.4-20.4 18.3-20.4-7.9-20.4-18.3 0-10.4 0-26.1 13.7-5.2 20.4-5.2 6.7 0 20.4 5.2 0 15.7 0 26.1z"/>
		<path id="Layer copy" fill-rule="evenodd" class="s1" d="m25.4 50.6q-20.4-7.9-20.4-18.3 0-10.4 0-26.1 13.7-5.2 20.4-5.2 0.5 0 1 0v49.2q-0.5 0.2-1 0.4z"/>
		<path class="s2" d="m46.9 32.3q0 10.4-20.4 18.3-20.4-7.9-20.4-18.3 0-10.4 0-26.1 13.7-5.2 20.4-5.2 6.7 0 20.4 5.2 0 15.7 0 26.1z"/>
		<path id="Layer copy 3" fill-rule="evenodd" class="s3" d="m25.4 47.6q-17.4-6.9-17.4-16.1 0-9.2 0-22.9 11.7-4.6 17.4-4.6 0.4 0 0.8 0v43.3q-0.4 0.2-0.8 0.3z"/>
		<path id="Layer copy 4" fill-rule="evenodd" class="s4" d="m27.5 3q5.7 0 17.4 4.6 0 13.7 0 22.9 0 9.2-17.4 16.1-0.4-0.1-0.8-0.3v-43.3q0.4 0 0.8 0z"/>
	</g>
	<path id="REV" fill-rule="evenodd" class="s5" d="m10.1 18.6h-1.6v-2.6h5.9q2.7 0 4.1 1.3 1.3 1.3 1.3 4 0 0.8-0.1 1.6-0.1 0.7-0.4 1.4-0.3 0.6-0.8 1.2-0.5 0.6-1.3 0.9 0.9 2 1.8 3.8 0.9 1.9 1.8 3.8h-3.4l-3.2-7h-1v7h-3.1zm4.2 0h-1.1v5.9h1.7q0.6 0 0.9-0.2 0.4-0.3 0.6-0.8 0.2-0.4 0.3-1 0-0.5 0-1 0-0.6-0.1-1.1-0.1-0.6-0.4-1-0.2-0.3-0.7-0.6-0.5-0.2-1.2-0.2zm8.3 0h-1.7v-2.6h14.7l2.8 13.5q0.7-3.4 1.3-6.7 0.6-3.4 1.3-6.8h3.2l-4 18h-3.7l-3.5-15.4h-7.4v4.9h5.3v2.5h-5.3v5.5h5.9v2.5h-8.9z"/>
</svg>